<svg width="122" height="103" viewBox="0 0 122 103" fill="none" xmlns="http://www.w3.org/2000/svg">
<path d="M57.5472 1.1573C72.8096 1.1573 87.447 6.46124 98.2391 15.9023C109.031 25.3433 115.094 38.1482 115.094 51.4999C115.094 64.8516 109.031 77.6564 98.2392 87.0976C87.4471 96.5387 72.8098 101.843 57.5474 101.843L57.5472 51.5V1.1573Z" fill="#F39035"/>
<path d="M57.5472 1.1573H43.7358V101.843H57.5472V1.1573Z" fill="#F39035"/>
<path d="M31.0755 1.68269H43.7358L47.1887 20.1995L31.0755 8.88369V1.68269Z" fill="#F39035" stroke="#F39035" stroke-width="2"/>
<path d="M31.0755 101.317H43.7358L47.1887 82.8004L31.0755 94.1163V101.317Z" fill="#F39035" stroke="#F39035" stroke-width="2"/>
<path d="M55.5859 22.7254C55.5859 22.4882 55.6309 22.265 55.7208 22.0558C55.8107 21.8411 55.9343 21.6575 56.0917 21.5048C56.2491 21.3466 56.4317 21.2223 56.6396 21.132C56.8532 21.0359 57.078 20.9879 57.314 20.9879H63.8723C64.1084 20.9879 64.3304 21.0359 64.5383 21.132C64.7519 21.2223 64.9373 21.3466 65.0946 21.5048C65.252 21.6575 65.3757 21.8411 65.4656 22.0558C65.5555 22.265 65.6005 22.4882 65.6005 22.7254V24.2936H63.8723V22.7254H57.314V31.4052H63.8723V29.8456H65.6005V31.4052C65.6005 31.6426 65.5555 31.8686 65.4656 32.0834C65.3757 32.2924 65.252 32.4761 65.0946 32.6343C64.9373 32.7926 64.7519 32.9169 64.5383 33.0073C64.3304 33.0977 64.1084 33.1429 63.8723 33.1429H57.314C57.078 33.1429 56.8532 33.0977 56.6396 33.0073C56.4317 32.9169 56.2491 32.7926 56.0917 32.6343C55.9343 32.4761 55.8107 32.2924 55.7208 32.0834C55.6309 31.8686 55.5859 31.6426 55.5859 31.4052V22.7254ZM61.2844 37.1901L65.9461 49.3452H64.218L63.1474 46.548H57.6934L56.6228 49.3452H54.8946L59.5563 37.1901H61.2844ZM58.3508 44.8103H62.4814L60.4246 39.4532L58.3508 44.8103ZM55.4173 55.1299C55.4173 54.8927 55.4623 54.6694 55.5522 54.4603C55.642 54.2456 55.7657 54.062 55.9231 53.9093C56.0804 53.7511 56.2631 53.6268 56.471 53.5364C56.6846 53.4404 56.9094 53.3924 57.1454 53.3924H63.7037C63.9398 53.3924 64.1618 53.4404 64.3697 53.5364C64.5833 53.6268 64.7687 53.7511 64.926 53.9093C65.0835 54.062 65.2071 54.2456 65.297 54.4603C65.3869 54.6694 65.4319 54.8927 65.4319 55.1299V56.6981H63.7037V55.1299H57.1454V63.8097H63.7037V60.86H60.4246V59.1223H65.4319V63.8097C65.4319 64.0471 65.3869 64.2731 65.297 64.4879C65.2071 64.6969 65.0835 64.8806 64.926 65.0388C64.7687 65.1971 64.5833 65.3214 64.3697 65.4118C64.1618 65.5022 63.9398 65.5474 63.7037 65.5474H57.1454C56.9094 65.5474 56.6846 65.5022 56.471 65.4118C56.2631 65.3214 56.0804 65.1971 55.9231 65.0388C55.7657 64.8806 55.642 64.6969 55.5522 64.4879C55.4623 64.2731 55.4173 64.0471 55.4173 63.8097V55.1299ZM56.2771 69.5946H65.0862V71.3322H58.0052V74.8076H64.0493V76.5451H58.0052V80.012H65.0862V81.7497H56.2771V69.5946Z" fill="black"/>
<path d="M77.4278 76.381C79.6309 76.381 81.3198 75.8325 82.4948 74.7354C83.6696 73.6384 84.2571 72.0035 84.2571 69.8305C84.2571 69.1765 84.2152 68.4698 84.1313 67.7102C84.0683 66.9508 83.9949 66.1808 83.9109 65.4002C83.848 64.5985 83.7746 63.8074 83.6906 63.0269C83.6277 62.2463 83.5962 61.5079 83.5962 60.8117C83.5962 58.5965 83.9319 56.7083 84.6033 55.1473C85.2957 53.565 86.3971 52.3203 87.9078 51.4131C86.3971 50.5271 85.2957 49.3035 84.6033 47.7423C83.9319 46.16 83.5962 44.2508 83.5962 42.0145C83.5962 41.3183 83.6277 40.5799 83.6906 39.7994C83.7746 39.0188 83.848 38.2382 83.9109 37.4576C83.9949 36.656 84.0683 35.8754 84.1313 35.116C84.2152 34.3564 84.2571 33.6497 84.2571 32.9957C84.2571 30.8227 83.6696 29.1983 82.4948 28.1224C81.3198 27.0254 79.6309 26.4768 77.4278 26.4768H76.5153V20.3061H77.4278C79.421 20.3061 81.2359 20.5909 82.8724 21.1605C84.5089 21.7301 85.9041 22.5528 87.058 23.6288C88.212 24.7047 89.1037 26.0233 89.733 27.5845C90.3625 29.1245 90.6773 30.886 90.6773 32.8692C90.6773 33.6286 90.6457 34.4408 90.5828 35.3058C90.5198 36.1707 90.4464 37.0357 90.3625 37.9007C90.2786 38.7446 90.2052 39.5462 90.1422 40.3057C90.0792 41.0652 90.0478 41.7192 90.0478 42.2677C90.0478 43.4702 90.1527 44.4618 90.3625 45.2424C90.5933 46.023 90.9499 46.6452 91.4325 47.1094C91.9361 47.5525 92.5655 47.8689 93.3208 48.0588C94.0971 48.2275 95.0202 48.3119 96.0903 48.3119H96.3735V54.5143H96.0903C95.0202 54.5143 94.0971 54.6092 93.3208 54.7991C92.5655 54.9679 91.9361 55.2844 91.4325 55.7485C90.9499 56.1915 90.5933 56.8034 90.3625 57.5838C90.1527 58.3644 90.0478 59.356 90.0478 60.5585C90.0478 61.107 90.0792 61.7715 90.1422 62.5521C90.2052 63.3117 90.2786 64.1239 90.3625 64.9888C90.4464 65.8326 90.5198 66.6871 90.5828 67.552C90.6457 68.417 90.6773 69.2187 90.6773 69.957C90.6773 71.9402 90.3625 73.7017 89.733 75.2419C89.1037 76.803 88.212 78.1215 87.058 79.1974C85.9041 80.2734 84.5089 81.0961 82.8724 81.6657C81.2359 82.2353 79.421 82.5201 77.4278 82.5201H76.5153V76.381H77.4278Z" fill="black"/>
</svg>
